# xmcd
#
# Track frame offsets:
#	150
#	21255
#	44684
#	78392
#	90089
#	109584
#	131522
#	159231
#
# Disc length: 2378 seconds
#
# Revision: 0
# Processed by: cddbd v1.5.2PL0 Copyright (c) Steve Scherf et al.
# Submitted via: dBpowerAMP V4.0
#
DISCID=54094808
DTITLE=Moody Blues - Blues Seventh Sojourn
DYEAR=1900
DGENRE=
TTITLE0=Lost In A Lost World
TTITLE1=New Horizons
TTITLE2=For My Lady
TTITLE3=Isn't Life Strange
TTITLE4=You And Me
TTITLE5=The Land Of Make-Believe
TTITLE6=When You're A Free Man
TTITLE7=I'm Just A Singer
EXTD=
EXTT0=
EXTT1=
EXTT2=
EXTT3=
EXTT4=
EXTT5=
EXTT6=
EXTT7=
PLAYORDER=
